<?xml version="1.0" encoding="UTF-8"?>
<svg id="Layer_2" data-name="Layer 2" xmlns="http://www.w3.org/2000/svg" viewBox="0 0 100.18 15.06">
  <defs>
    <style>
      .cls-1 {
        fill: #0046ff;
      }
    </style>
  </defs>
  <g id="Layer_1-2" data-name="Layer 1">
    <g>
      <g>
        <path d="M40.23,12.43c-.58-.26-1.03-.62-1.37-1.06-.34-.45-.52-.94-.55-1.49h2.26c.04.34.21.62.5.85.29.22.66.34,1.1.34s.76-.08,1-.26.36-.39.36-.66c0-.29-.15-.5-.44-.65-.29-.14-.76-.3-1.4-.47-.66-.16-1.2-.33-1.62-.5-.42-.17-.78-.43-1.09-.78-.3-.35-.46-.83-.46-1.42,0-.49.14-.94.42-1.34.28-.41.69-.72,1.22-.96.53-.23,1.15-.35,1.86-.35,1.06,0,1.9.26,2.53.79.63.53.98,1.24,1.04,2.14h-2.14c-.03-.35-.18-.63-.44-.84-.26-.21-.61-.31-1.05-.31-.41,0-.72.08-.94.22s-.33.36-.33.62c0,.3.15.53.45.68.3.16.76.31,1.39.47.64.16,1.17.33,1.58.5.42.17.78.44,1.08.79.3.36.46.83.47,1.42,0,.51-.14.97-.42,1.38-.28.41-.69.72-1.22.95-.53.23-1.14.34-1.85.34s-1.38-.13-1.95-.39Z"/>
        <path d="M47.34,5.84c.37-.69.89-1.22,1.55-1.6.66-.38,1.42-.57,2.27-.57,1.1,0,2.01.27,2.73.82.72.55,1.2,1.32,1.45,2.31h-2.42c-.13-.38-.34-.69-.65-.9-.3-.22-.68-.33-1.13-.33-.64,0-1.15.23-1.52.7-.37.46-.56,1.12-.56,1.98s.19,1.5.56,1.96c.37.46.88.7,1.52.7.91,0,1.5-.41,1.78-1.22h2.42c-.25.96-.73,1.72-1.46,2.29s-1.63.85-2.72.85c-.85,0-1.61-.19-2.27-.57s-1.18-.91-1.55-1.6c-.37-.69-.56-1.49-.56-2.41s.19-1.72.56-2.41Z"/>
        <path d="M58.46,12.26c-.68-.38-1.22-.92-1.61-1.61-.39-.69-.58-1.49-.58-2.4s.2-1.71.6-2.4c.4-.69.95-1.23,1.64-1.61.69-.38,1.47-.57,2.32-.57s1.63.19,2.32.57c.69.38,1.24.92,1.64,1.61.4.69.6,1.49.6,2.4s-.21,1.71-.62,2.4c-.41.69-.97,1.23-1.66,1.61-.7.38-1.48.57-2.34.57s-1.62-.19-2.3-.57ZM61.91,10.58c.36-.2.64-.49.86-.89.21-.39.32-.87.32-1.44,0-.84-.22-1.49-.66-1.94-.44-.45-.98-.68-1.62-.68s-1.18.23-1.61.68-.65,1.1-.65,1.94.21,1.49.63,1.94c.42.45.95.68,1.59.68.41,0,.79-.1,1.14-.3Z"/>
        <path d="M75.24,3.81v8.86h-2.26v-1.12c-.29.38-.66.69-1.13.9s-.97.33-1.51.33c-.69,0-1.31-.15-1.84-.44-.53-.29-.95-.73-1.26-1.3-.3-.57-.46-1.25-.46-2.04V3.81h2.24v4.88c0,.7.18,1.25.53,1.62.35.38.83.57,1.44.57s1.1-.19,1.46-.57c.35-.38.53-.92.53-1.62V3.81h2.26Z"/>
        <path d="M79.9,5.65v4.29c0,.3.07.51.22.65s.39.2.73.2h1.04v1.89h-1.41c-1.89,0-2.83-.92-2.83-2.75v-4.27h-1.06v-1.84h1.06V1.62h2.26v2.19h1.98v1.84h-1.98Z"/>
        <path class="cls-1" d="M83.33,12.42c-.26-.25-.39-.56-.39-.94s.13-.68.39-.94.59-.38,1-.38.72.12.98.38c.26.25.38.56.38.94s-.13.69-.38.94c-.26.25-.58.38-.98.38s-.74-.13-1-.38Z"/>
        <path class="cls-1" d="M87.49,2.38c-.26-.25-.39-.56-.39-.94s.13-.68.39-.94c.26-.25.59-.38.98-.38s.72.12.98.38c.26.25.39.56.39.94s-.13.69-.39.94c-.26.25-.59.38-.98.38s-.72-.12-.98-.38ZM89.58,3.81v8.86h-2.24V3.81h2.24Z"/>
        <path class="cls-1" d="M93.26,12.26c-.68-.38-1.22-.92-1.61-1.61s-.58-1.49-.58-2.4.2-1.71.6-2.4c.4-.69.95-1.23,1.64-1.61.69-.38,1.47-.57,2.32-.57s1.63.19,2.32.57c.69.38,1.24.92,1.64,1.61.4.69.6,1.49.6,2.4s-.21,1.71-.62,2.4c-.41.69-.96,1.23-1.66,1.61-.7.38-1.48.57-2.34.57s-1.62-.19-2.3-.57ZM96.71,10.58c.36-.2.64-.49.86-.89.21-.39.32-.87.32-1.44,0-.84-.22-1.49-.66-1.94s-.98-.68-1.62-.68-1.18.23-1.61.68c-.43.45-.65,1.1-.65,1.94s.21,1.49.63,1.94c.42.45.95.68,1.59.68.41,0,.79-.1,1.14-.3Z"/>
      </g>
      <path class="cls-1" d="M10.3,14.26c.38.31.07.91-.4.78-2.7-.71-5.14-1.8-7.19-2.94-3.6-2-3.6-7.14,0-9.15C4.75,1.81,7.2.72,9.9.02c.48-.12.78.47.4.78-1.95,1.6-3.19,4.02-3.19,6.73s1.24,5.14,3.19,6.73ZM28.93,2.96C26.88,1.81,24.44.72,21.74.02c-.48-.12-.78.47-.4.78,1.95,1.6,3.19,4.02,3.19,6.73s-1.24,5.14-3.19,6.73c-.38.31-.07.91.4.78,2.7-.71,5.14-1.8,7.2-2.94,3.6-2,3.6-7.15,0-9.15Z"/>
      <path class="cls-1" d="M18.06,5.29l3.58,1.46c.71.29.71,1.29,0,1.57l-3.58,1.46-1.46,3.58c-.29.71-1.29.71-1.57,0l-1.46-3.58-3.58-1.46c-.71-.29-.71-1.29,0-1.57l3.58-1.46,1.46-3.58c.29-.71,1.29-.71,1.57,0l1.46,3.58Z"/>
    </g>
  </g>
</svg>