<?xml version="1.0" encoding="UTF-8"?>
<svg id="Layer_2" data-name="Layer 2" xmlns="http://www.w3.org/2000/svg" viewBox="0 0 31.63 15.06">
  <defs>
    <style>
      .cls-1 {
        fill: #0046ff;
      }
    </style>
  </defs>
  <g id="Layer_1-2" data-name="Layer 1">
    <g>
      <path class="cls-1" d="M10.3,14.26c.38.31.07.91-.4.78-2.7-.71-5.14-1.8-7.19-2.94-3.6-2-3.6-7.14,0-9.15C4.75,1.81,7.2.72,9.9.02c.48-.12.78.47.4.78-1.95,1.6-3.19,4.02-3.19,6.73s1.24,5.14,3.19,6.73ZM28.93,2.96C26.88,1.81,24.44.72,21.74.02c-.48-.12-.78.47-.4.78,1.95,1.6,3.19,4.02,3.19,6.73s-1.24,5.14-3.19,6.73c-.38.31-.07.91.4.78,2.7-.71,5.14-1.8,7.2-2.94,3.6-2,3.6-7.15,0-9.15Z"/>
      <path class="cls-1" d="M18.06,5.29l3.58,1.46c.71.29.71,1.29,0,1.57l-3.58,1.46-1.46,3.58c-.29.71-1.29.71-1.57,0l-1.46-3.58-3.58-1.46c-.71-.29-.71-1.29,0-1.57l3.58-1.46,1.46-3.58c.29-.71,1.29-.71,1.57,0l1.46,3.58Z"/>
    </g>
  </g>
</svg>